<svg preserveAspectRatio="xMidYMid meet" viewBox="0 0 100 144" xmlns="http://www.w3.org/2000/svg"><g fill="none"><g transform="translate(27.784705 .786368)"><path d="m.020781 3.163965h10.889443v139h-10.889443z" fill="#291d99"/><path d="m5.465503 3.163965h5.444722v139h-5.444722z" fill="#3c35b6"/><path d="m5.4517872.02057357 5.4476309 3.14172901-5.44035742 3.13778055-5.44783873-3.14172902z" fill="#3833b4"/></g><g transform="translate(20.428096 5.441397)"><path d="m.020781 3.163965h10.889443v134h-10.889443z" fill="#291d99"/><path d="m5.465503 3.163965h5.444722v134h-5.444722z" fill="#3c35b6"/><path d="m5.4517872.02057357 5.4476309 3.14172901-5.44035742 3.13778055-5.44783873-3.14172902z" fill="#3833b4"/></g><g transform="translate(.394846 11.904406)"><path d="m.011035 3.160017h10.888155v41.592685h-10.888155z" fill="#291d99"/><path d="m5.455112 3.160017h5.444077v41.592685h-5.444077z" fill="#3c35b6"/><path d="m5.45182876.02057357 5.44767244 3.14172901-5.44056521 3.13778055-5.4476517-3.14172902z" fill="#3833b4"/></g><g transform="translate(13.819618 2.78138)"><path d="m.011035 3.160017h10.888175v41.592685h-10.888175z" fill="#291d99"/><path d="m5.465503 3.163965h5.444722v137h-5.444722z" fill="#3c35b6"/><path d="m5.4517872.02057357 5.4476309 3.14172901-5.44035742 3.13778055-5.44779717-3.14172902z" fill="#3833b4"/></g><g transform="translate(5.029094 7.872818)"><path d="m.011035 3.160017h10.888155v41.592685h-10.888155z" fill="#291d99"/><path d="m5.455112 3.160017h5.444077v41.592685h-5.444077z" fill="#3c35b6"/><path d="m5.45182876.02057357 5.44767244 3.14172901-5.44056521 3.13778055-5.4476517-3.14172902z" fill="#3833b4"/></g><g transform="translate(0 24.082295)"><path d="m0 2.249584h7.772236v117h-7.772236z" fill="#291d99"/><path d="m3.906899 2.249584h3.886118v117h-3.886118z" fill="#3c35b6"/><path d="m3.89416043.01018288 3.89120948 2.24418121-3.88611804 2.24127182-3.89120948-2.24418121z" fill="#3833b4"/></g><g transform="translate(11.679135 11.904406)"><path d="m.011035 3.160017h10.888175v41.592685h-10.888175z" fill="#291d99"/><path d="m5.465503 3.163965h5.444722v75.60266h-5.444722z" fill="#3c35b6"/><path d="m5.45182876.02057357 5.44758934 3.14172901-5.44056523 3.13778055-5.44756858-3.14172902z" fill="#3833b4"/></g><g transform="translate(5.029094 17.972569)"><path d="m.020781 3.163965h10.889443v122h-10.889443z" fill="#291d99"/><path d="m5.455112 3.160017h5.444077v41.592685h-5.444077z" fill="#3c35b6"/><path d="m5.45182876.02057357 5.44767244 3.14172901-5.44056521 3.13778055-5.4476517-3.14172902z" fill="#3833b4"/></g><g transform="translate(14.796342 19.572735)"><path d="m0 2.249584h7.772236v121h-7.772236z" fill="#291d99"/><path d="m3.906899 2.249584h3.886118v121h-3.886118z" fill="#3c35b6"/><path d="m3.89416043.01018288 3.89116792 2.24418121-3.88611804 2.24127182-3.89114713-2.24418121z" fill="#3833b4"/></g><g transform="translate(6.379884 25.142145)"><path d="m.020781 3.163965h10.889443v115h-10.889443z" fill="#291d99"/><path d="m5.465503 3.163965h5.444722v115h-5.444722z" fill="#3c35b6"/><path d="m5.45182876.02057357 5.44767244 3.14172901-5.44056521 3.13778055-5.4476517-3.14172902z" fill="#3833b4"/></g><g transform="translate(61.305071 .786368)"><path d="m.020781 3.163965h10.889443v139h-10.889443z" fill="#291d99"/><path d="m.020781 3.163965h5.444722v139h-5.444722z" fill="#3c35b6"/><path d="m5.45843724.02057357-5.44763092 3.14172901 5.44035744 3.13778055 5.44783874-3.14172902z" fill="#3833b4"/></g><g transform="translate(68.66168 5.441397)"><path d="m.020781 3.163965h10.889443v134h-10.889443z" fill="#291d99"/><path d="m.020781 3.163965h5.444722v134h-5.444722z" fill="#3c35b6"/><path d="m5.45843724.02057357-5.44763092 3.14172901 5.44035744 3.13778055 5.44783874-3.14172902z" fill="#3833b4"/></g><g transform="translate(88.69493 11.904406)"><path d="m.011014 3.160017h10.888196v41.592685h-10.888196z" fill="#291d99"/><path d="m.011014 3.160017h5.444098v41.592685h-5.444098z" fill="#3c35b6"/><path d="m5.45843724.02057357-5.44763092 3.14172901 5.44035744 3.13778055 5.44783874-3.14172902z" fill="#3833b4"/></g><g transform="translate(75.270158 2.78138)"><path d="m.011014 3.160017h10.888196v41.592685h-10.888196z" fill="#291d99"/><path d="m.020781 3.163965h5.444722v137h-5.444722z" fill="#3c35b6"/><path d="m5.45843724.02057357-5.44763092 3.14172901 5.44035744 3.13778055 5.44783874-3.14172902z" fill="#3833b4"/></g><g transform="translate(84.060682 7.872818)"><path d="m.011014 3.160017h10.888196v41.592685h-10.888196z" fill="#291d99"/><path d="m.011014 3.160017h5.444098v41.592685h-5.444098z" fill="#3c35b6"/><path d="m5.45843724.02057357-5.44763092 3.14172901 5.44035744 3.13778055 5.44783874-3.14172902z" fill="#3833b4"/></g><g transform="translate(92.206983 24.082295)"><path d="m0 2.249584h7.772236v116h-7.772236z" fill="#291d99"/><path d="m0 2.249584h3.886118v116h-3.886118z" fill="#3c35b6"/><path d="m3.89879468.01018288-3.89110557 2.24418121 3.88611804 2.24127182 3.89110557-2.24418121z" fill="#3833b4"/></g><g transform="translate(77.41064 11.904406)"><path d="m.011014 3.160017h10.888196v41.592685h-10.888196z" fill="#291d99"/><path d="m.020781 3.163965h5.444722v75.60266h-5.444722z" fill="#3c35b6"/><path d="m5.45843724.02057357-5.44763092 3.14172901 5.44035744 3.13778055 5.44783874-3.14172902z" fill="#3833b4"/></g><g transform="translate(84.060682 17.972569)"><path d="m.020781 3.163965h10.889443v121h-10.889443z" fill="#291d99"/><path d="m.011014 3.160017h5.444098v41.592685h-5.444098z" fill="#3c35b6"/><path d="m5.45843724.02057357-5.44763092 3.14172901 5.44035744 3.13778055 5.44783874-3.14172902z" fill="#3833b4"/></g><g transform="translate(77.41064 19.572735)"><path d="m0 2.249584h7.772236v121h-7.772236z" fill="#291d99"/><path d="m0 2.249584h3.886118v121h-3.886118z" fill="#3c35b6"/><path d="m3.89879468.01018288-3.89110557 2.24418121 3.88611804 2.24127182 3.89110557-2.24418121z" fill="#3833b4"/></g><g transform="translate(82.709892 25.142145)"><path d="m.020781 3.163965h10.889443v114h-10.889443z" fill="#291d99"/><path d="m.020781 3.163965h5.444722v114h-5.444722z" fill="#3c35b6"/><path d="m5.45843724.02057357-5.44763092 3.14172901 5.44035744 3.13778055 5.44783874-3.14172902z" fill="#3833b4"/></g></g></svg>
