<svg preserveAspectRatio="xMidYMid meet" viewBox="0 0 240 3414" xmlns="http://www.w3.org/2000/svg" xmlns:xlink="http://www.w3.org/1999/xlink"><linearGradient id="a" x1="0%" x2="0%" y1="100%" y2="0%"><stop offset="0" stop-color="#fffffc"/><stop offset=".387589738" stop-color="#fffffc"/><stop offset=".62890625" stop-color="#ea4fca"/><stop offset=".783044764" stop-color="#ea4fca"/><stop offset=".902158995" stop-color="#413ac9"/><stop offset="1" stop-color="#1a0054"/></linearGradient><linearGradient id="b" x1="0%" x2="0%" y1="100%" y2="0%"><stop offset=".3" stop-color="#e2a1f5" stop-opacity="0"/><stop offset=".66" stop-color="#e2a1f5" stop-opacity=".52"/><stop offset="1" stop-color="#fff"/></linearGradient><linearGradient id="c" x1="0%" x2="100%" y1="0%" y2="0%"><stop offset="0" stop-color="#fffdff" stop-opacity="0"/><stop offset="1" stop-color="#fffdff"/></linearGradient><g fill="none" transform="translate(0 -1)"><path d="m0 69.969h240v1829.031h-240z" fill="#030b22"/><path d="m0 69.969h240v3345h-240z" fill="url(#a)"/><path d="m120 69.969h120v3345h-120z" fill="#8d4dc7"/><path d="m119.928.996 120.076 69.014-119.919 68.926-120.077-69.014z" fill="#829edf"/><path d="m50.126 166.86 15.748 9.343v1513.156l-15.748-9.344z" fill="none"/><path d="m50.126 166.86 15.748 9.343v1513.156l-15.748-9.344z" fill="url(#b)"/><path d="m195.874 142-15.748 32.748885v3240.251115h15.748z" fill="#aa74d2"/><path d="m90.061 35.103 75.878 43.793v11.501l-75.878-43.793z" fill="#181580"/><path d="m165.593 78.45 22.814-12.6v11.7l-22.814 12.6z" fill="#93a9e2"/><path d="m111.538 23.059 75.864 43.8-22.443 12.958-75.864-43.799z" fill="#6488dc"/><path d="m49.061 55.103 75.878 43.794v11.499l-75.878-43.792z" fill="#181580"/><path d="m124.593 98.45 22.814-12.6v11.7l-22.814 12.6z" fill="#93a9e2"/><path d="m70.539 43.059 75.863 43.8-22.443 12.958-75.864-43.799z" fill="#6488dc"/><path d="m64.4691892 233.715675v3181.284325h-44.9383784l2.8086487-3218.153513 28.0864864-29.846487z" fill="url(#c)"/></g></svg>