<svg height="34" viewBox="0 0 38 34" width="38" xmlns="http://www.w3.org/2000/svg"><g fill="#786dd8" fill-rule="evenodd"><path d="m26.481 8.519-2.824 2.824c1.448 1.448 2.343 3.448 2.343 5.657s-.895 4.209-2.343 5.657l2.824 2.824c2.173-2.173 3.519-5.173 3.519-8.481s-1.346-6.308-3.519-8.481z"/><path d="m32.136 2.864-2.822 2.822c2.895 2.896 4.686 6.896 4.686 11.314s-1.791 8.418-4.686 11.314l2.822 2.822c3.621-3.622 5.864-8.622 5.864-14.136s-2.243-10.514-5.864-14.136z"/><path d="m16 5.643v22.686l-9.342-9.351h-2.658v-3.978h2.659zm4-5.643h-4.018l-10.982 11h-5v11.978h5l11.011 11.022h3.989z" fill-rule="nonzero"/></g></svg>