<?xml version="1.0" encoding="UTF-8"?>
<svg width="16px" height="15px" viewBox="0 0 16 15" version="1.1" xmlns="http://www.w3.org/2000/svg" xmlns:xlink="http://www.w3.org/1999/xlink">
    <!-- Generator: Sketch 53.2 (72643) - https://sketchapp.com -->
    <title>social-ico-linked</title>
    <desc>Created with Sketch.</desc>
    <g id="Page-1" stroke="none" stroke-width="1" fill="none" fill-rule="evenodd">
        <g id="social-ico-linked" fill="#FFFFFF" fill-rule="nonzero">
            <path d="M16,15 L12.4637818,15 L12.4637818,9.7269 C12.4637818,8.3466735 11.9106302,7.40443125 10.6942615,7.40443125 C9.763876,7.40443125 9.24647236,8.04027675 9.00564436,8.65307025 C8.91533382,8.87302313 8.92944509,9.17941988 8.92944509,9.48581663 L8.92944509,15 L5.42615236,15 C5.42615236,15 5.47130764,5.65921763 5.42615236,4.81014263 L8.92944509,4.81014263 L8.92944509,6.40936163 C9.13640655,5.7101235 10.2558796,4.71217275 12.0423331,4.71217275 C14.2587018,4.71217275 16,6.17788313 16,9.334059 L16,15 Z M1.88334909,3.53557013 L1.86077127,3.53557013 C0.731890909,3.53557013 0,2.7566115 0,1.769226 C0,0.762630375 0.753527636,0 1.90498582,0 C3.05550327,0 3.76293491,0.760709625 3.78551273,1.7663445 C3.78551273,2.75373 3.05550327,3.53557013 1.88334909,3.53557013 Z M0.403574909,4.81014263 L3.52210727,4.81014263 L3.52210727,15 L0.403574909,15 L0.403574909,4.81014263 Z" id="Shape"></path>
        </g>
    </g>
</svg>