<?xml version="1.0" encoding="UTF-8"?>
<svg width="16px" height="14px" viewBox="0 0 16 14" version="1.1" xmlns="http://www.w3.org/2000/svg" xmlns:xlink="http://www.w3.org/1999/xlink">
    <!-- Generator: Sketch 53.2 (72643) - https://sketchapp.com -->
    <title>social-ico-tw</title>
    <desc>Created with Sketch.</desc>
    <g id="Page-1" stroke="none" stroke-width="1" fill="none" fill-rule="evenodd">
        <g id="social-ico-tw" fill="#FFFFFF" fill-rule="nonzero">
            <path d="M16,1.65734905 C15.412103,1.9384617 14.7791277,2.1285663 14.115161,2.21350675 C14.7932147,1.77667035 15.313494,1.08400145 15.5586077,0.25886595 C14.9237543,0.66334415 14.2222223,0.9576021 13.4727947,1.1153485 C12.8755063,0.42874685 12.0218347,0 11.0770677,0 C9.265481,0 7.79573867,1.5825208 7.79573867,3.5341278 C7.79573867,3.8111955 7.82391267,4.0801733 7.88026067,4.33903925 C5.15208067,4.1914047 2.73381467,2.7858432 1.113811,0.64514275 C0.831132333,1.1689419 0.669601333,1.77667035 0.669601333,2.4238354 C0.669601333,3.64940415 1.24904633,4.7313833 2.12995233,5.3654027 C1.59276867,5.34821245 1.085637,5.18743225 0.642366667,4.92452135 L0.642366667,4.9680029 C0.642366667,6.680968 1.77402133,8.109787 3.27663333,8.43336935 C3.00146733,8.5162875 2.71127533,8.5577464 2.41169233,8.5577464 C2.20038733,8.5577464 1.99377833,8.53651155 1.793743,8.4950523 C2.211657,9.8985915 3.423138,10.92091 4.86001067,10.9482125 C3.736808,11.8967135 2.32059633,12.4619719 0.783236333,12.4619719 C0.518401,12.4619719 0.256383,12.4457928 0,12.4134346 C1.452838,13.4145179 3.17896333,14 5.03187167,14 C11.0704937,14 14.3715443,8.61538475 14.3715443,3.94467325 C14.3715443,3.79097145 14.368727,3.63726965 14.363092,3.48660165 C15.0045197,2.9880823 15.561425,2.36619705 16,1.65734905" id="Path"></path>
        </g>
    </g>
</svg>