<?xml version="1.0" encoding="UTF-8"?>
<svg width="16px" height="17px" viewBox="0 0 16 17" version="1.1" xmlns="http://www.w3.org/2000/svg" xmlns:xlink="http://www.w3.org/1999/xlink">
    <!-- Generator: Sketch 53.2 (72643) - https://sketchapp.com -->
    <title>social-ico-twitch</title>
    <desc>Created with Sketch.</desc>
    <g id="Page-1" stroke="none" stroke-width="1" fill="none" fill-rule="evenodd">
        <g id="social-ico-twitch" fill="#FFFFFF" fill-rule="nonzero">
            <path d="M8,4.43389423 L8,8.86778846 L6.54271357,8.86778846 L6.54271357,4.43389423 L8,4.43389423 Z M12,4.43389423 L12,8.86778846 L10.5427136,8.86778846 L10.5427136,4.43389423 L12,4.43389423 Z M12,12.1983173 L14.5427136,9.60336538 L14.5427136,1.48137019 L2.54271357,1.48137019 L2.54271357,12.1983173 L5.81909548,12.1983173 L5.81909548,14.4152644 L8,12.1983173 L12,12.1983173 Z M16,0 L16,10.3491587 L11.638191,14.7830529 L8.36180905,14.7830529 L6.18090452,17 L4,17 L4,14.7830529 L0,14.7830529 L0,2.95252404 L1.09547739,0 L16,0 Z" id="Shape"></path>
        </g>
    </g>
</svg>